<mxfile host="app.diagrams.net" modified="2023-06-12T11:33:47.387Z" agent="Mozilla/5.0 (Windows NT 10.0; Win64; x64) AppleWebKit/537.36 (KHTML, like Gecko) Chrome/114.0.0.0 Safari/537.36" etag="WAbX2nX1-Cfuf4vTkeHh" version="21.3.8" type="device">
  <diagram name="Lapa-1" id="Rf7l0p4UaqZ7vG6OI1Jp">
    <mxGraphModel dx="1434" dy="796" grid="1" gridSize="10" guides="1" tooltips="1" connect="1" arrows="1" fold="1" page="1" pageScale="1" pageWidth="827" pageHeight="1169" math="0" shadow="0">
      <root>
        <mxCell id="0" />
        <mxCell id="1" parent="0" />
        <mxCell id="4ciSenX0jsKYbf1vKYnB-1" value="Testa pildītājs" style="shape=umlActor;verticalLabelPosition=bottom;verticalAlign=top;html=1;outlineConnect=0;" parent="1" vertex="1">
          <mxGeometry x="130" y="300" width="90" height="150" as="geometry" />
        </mxCell>
        <mxCell id="4ciSenX0jsKYbf1vKYnB-2" value="Startē programmu" style="ellipse;whiteSpace=wrap;html=1;" parent="1" vertex="1">
          <mxGeometry x="260" y="310" width="120" height="80" as="geometry" />
        </mxCell>
        <mxCell id="4ciSenX0jsKYbf1vKYnB-3" value="" style="endArrow=none;html=1;rounded=0;" parent="1" edge="1">
          <mxGeometry width="50" height="50" relative="1" as="geometry">
            <mxPoint x="220" y="350" as="sourcePoint" />
            <mxPoint x="260" y="350" as="targetPoint" />
          </mxGeometry>
        </mxCell>
        <mxCell id="4ciSenX0jsKYbf1vKYnB-5" value="Beidz programmu" style="ellipse;whiteSpace=wrap;html=1;" parent="1" vertex="1">
          <mxGeometry x="260" y="460" width="120" height="80" as="geometry" />
        </mxCell>
        <mxCell id="4ciSenX0jsKYbf1vKYnB-7" value="" style="endArrow=none;html=1;rounded=0;exitX=0.5;exitY=0;exitDx=0;exitDy=0;" parent="1" source="4ciSenX0jsKYbf1vKYnB-5" edge="1">
          <mxGeometry width="50" height="50" relative="1" as="geometry">
            <mxPoint x="319.58000000000004" y="450" as="sourcePoint" />
            <mxPoint x="319.58000000000004" y="390" as="targetPoint" />
          </mxGeometry>
        </mxCell>
        <mxCell id="4ciSenX0jsKYbf1vKYnB-8" value="Ievada atbildi" style="ellipse;whiteSpace=wrap;html=1;" parent="1" vertex="1">
          <mxGeometry x="450" y="310" width="120" height="80" as="geometry" />
        </mxCell>
        <mxCell id="4ciSenX0jsKYbf1vKYnB-9" value="" style="endArrow=none;html=1;rounded=0;exitX=1;exitY=0.5;exitDx=0;exitDy=0;entryX=0;entryY=0.5;entryDx=0;entryDy=0;" parent="1" source="4ciSenX0jsKYbf1vKYnB-2" target="4ciSenX0jsKYbf1vKYnB-8" edge="1">
          <mxGeometry width="50" height="50" relative="1" as="geometry">
            <mxPoint x="430" y="370" as="sourcePoint" />
            <mxPoint x="430" y="310" as="targetPoint" />
          </mxGeometry>
        </mxCell>
        <mxCell id="4ciSenX0jsKYbf1vKYnB-10" value="1" style="ellipse;whiteSpace=wrap;html=1;" parent="1" vertex="1">
          <mxGeometry x="550" y="250" width="30" height="30" as="geometry" />
        </mxCell>
        <mxCell id="4ciSenX0jsKYbf1vKYnB-11" value="2" style="ellipse;whiteSpace=wrap;html=1;" parent="1" vertex="1">
          <mxGeometry x="590" y="300" width="30" height="30" as="geometry" />
        </mxCell>
        <mxCell id="4ciSenX0jsKYbf1vKYnB-12" value="4" style="ellipse;whiteSpace=wrap;html=1;" parent="1" vertex="1">
          <mxGeometry x="530" y="410" width="30" height="30" as="geometry" />
        </mxCell>
        <mxCell id="4ciSenX0jsKYbf1vKYnB-13" value="3" style="ellipse;whiteSpace=wrap;html=1;" parent="1" vertex="1">
          <mxGeometry x="590" y="370" width="30" height="30" as="geometry" />
        </mxCell>
        <mxCell id="4ciSenX0jsKYbf1vKYnB-14" value="" style="endArrow=none;html=1;rounded=0;entryX=0;entryY=1;entryDx=0;entryDy=0;" parent="1" target="4ciSenX0jsKYbf1vKYnB-10" edge="1">
          <mxGeometry width="50" height="50" relative="1" as="geometry">
            <mxPoint x="544.58" y="320" as="sourcePoint" />
            <mxPoint x="544.58" y="260" as="targetPoint" />
          </mxGeometry>
        </mxCell>
        <mxCell id="4ciSenX0jsKYbf1vKYnB-15" value="" style="endArrow=none;html=1;rounded=0;entryX=-0.007;entryY=0.68;entryDx=0;entryDy=0;entryPerimeter=0;" parent="1" target="4ciSenX0jsKYbf1vKYnB-11" edge="1">
          <mxGeometry width="50" height="50" relative="1" as="geometry">
            <mxPoint x="560.58" y="330" as="sourcePoint" />
            <mxPoint x="570" y="286" as="targetPoint" />
          </mxGeometry>
        </mxCell>
        <mxCell id="4ciSenX0jsKYbf1vKYnB-16" value="" style="endArrow=none;html=1;rounded=0;entryX=-0.048;entryY=0.287;entryDx=0;entryDy=0;entryPerimeter=0;" parent="1" target="4ciSenX0jsKYbf1vKYnB-13" edge="1">
          <mxGeometry width="50" height="50" relative="1" as="geometry">
            <mxPoint x="562.58" y="370" as="sourcePoint" />
            <mxPoint x="590" y="361" as="targetPoint" />
          </mxGeometry>
        </mxCell>
        <mxCell id="4ciSenX0jsKYbf1vKYnB-17" value="" style="endArrow=none;html=1;rounded=0;entryX=0.333;entryY=-0.014;entryDx=0;entryDy=0;entryPerimeter=0;" parent="1" target="4ciSenX0jsKYbf1vKYnB-12" edge="1">
          <mxGeometry width="50" height="50" relative="1" as="geometry">
            <mxPoint x="523.58" y="390" as="sourcePoint" />
            <mxPoint x="550" y="399" as="targetPoint" />
          </mxGeometry>
        </mxCell>
      </root>
    </mxGraphModel>
  </diagram>
</mxfile>
